<mxfile host="app.diagrams.net" agent="Mozilla/5.0 (Windows NT 10.0; Win64; x64) AppleWebKit/537.36 (KHTML, like Gecko) Chrome/131.0.0.0 Safari/537.36" version="24.8.9">
  <diagram name="Page-1" id="qwLsXOAZj4ppxeVu0n_W">
    <mxGraphModel dx="1235" dy="1755" grid="1" gridSize="10" guides="1" tooltips="1" connect="1" arrows="1" fold="1" page="1" pageScale="1" pageWidth="850" pageHeight="1100" math="0" shadow="0">
      <root>
        <mxCell id="0" />
        <mxCell id="1" parent="0" />
        <mxCell id="EGKJRAtYX4BaFurXMOX3-1" value="&lt;h2&gt;Professors&lt;/h2&gt;" style="rounded=0;whiteSpace=wrap;html=1;" vertex="1" parent="1">
          <mxGeometry x="210" y="240" width="120" height="60" as="geometry" />
        </mxCell>
        <mxCell id="EGKJRAtYX4BaFurXMOX3-2" value="&lt;h3&gt;&lt;u style=&quot;font-weight: normal;&quot;&gt;&lt;font face=&quot;Helvetica&quot;&gt;SSN&lt;/font&gt;&lt;/u&gt;&lt;/h3&gt;" style="ellipse;whiteSpace=wrap;html=1;align=center;" vertex="1" parent="1">
          <mxGeometry x="210" y="170" width="90" height="30" as="geometry" />
        </mxCell>
        <mxCell id="EGKJRAtYX4BaFurXMOX3-3" value="" style="edgeStyle=none;orthogonalLoop=1;jettySize=auto;html=1;rounded=0;exitX=0.445;exitY=0.002;exitDx=0;exitDy=0;exitPerimeter=0;entryX=0.472;entryY=1.016;entryDx=0;entryDy=0;entryPerimeter=0;" edge="1" parent="1" source="EGKJRAtYX4BaFurXMOX3-1" target="EGKJRAtYX4BaFurXMOX3-2">
          <mxGeometry width="100" relative="1" as="geometry">
            <mxPoint x="370" y="220" as="sourcePoint" />
            <mxPoint x="470" y="220" as="targetPoint" />
            <Array as="points" />
          </mxGeometry>
        </mxCell>
        <mxCell id="EGKJRAtYX4BaFurXMOX3-4" value="Name" style="ellipse;whiteSpace=wrap;html=1;" vertex="1" parent="1">
          <mxGeometry x="330" y="190" width="80" height="30" as="geometry" />
        </mxCell>
        <mxCell id="EGKJRAtYX4BaFurXMOX3-5" value="" style="edgeStyle=none;orthogonalLoop=1;jettySize=auto;html=1;rounded=0;exitX=0.999;exitY=0.103;exitDx=0;exitDy=0;exitPerimeter=0;entryX=0.397;entryY=0.98;entryDx=0;entryDy=0;entryPerimeter=0;" edge="1" parent="1" source="EGKJRAtYX4BaFurXMOX3-1" target="EGKJRAtYX4BaFurXMOX3-4">
          <mxGeometry width="100" relative="1" as="geometry">
            <mxPoint x="360" y="250" as="sourcePoint" />
            <mxPoint x="460" y="250" as="targetPoint" />
            <Array as="points" />
          </mxGeometry>
        </mxCell>
        <mxCell id="EGKJRAtYX4BaFurXMOX3-6" value="Age" style="ellipse;whiteSpace=wrap;html=1;dashed=1;" vertex="1" parent="1">
          <mxGeometry x="130" y="200" width="60" height="20" as="geometry" />
        </mxCell>
        <mxCell id="EGKJRAtYX4BaFurXMOX3-7" value="" style="edgeStyle=none;orthogonalLoop=1;jettySize=auto;html=1;rounded=0;entryX=0.5;entryY=1;entryDx=0;entryDy=0;exitX=-0.001;exitY=0.375;exitDx=0;exitDy=0;exitPerimeter=0;" edge="1" parent="1" source="EGKJRAtYX4BaFurXMOX3-1" target="EGKJRAtYX4BaFurXMOX3-6">
          <mxGeometry width="100" relative="1" as="geometry">
            <mxPoint x="130" y="260" as="sourcePoint" />
            <mxPoint x="230" y="260" as="targetPoint" />
            <Array as="points">
              <mxPoint x="160" y="250" />
            </Array>
          </mxGeometry>
        </mxCell>
        <mxCell id="EGKJRAtYX4BaFurXMOX3-8" value="Rank" style="ellipse;whiteSpace=wrap;html=1;" vertex="1" parent="1">
          <mxGeometry x="100" y="270" width="60" height="20" as="geometry" />
        </mxCell>
        <mxCell id="EGKJRAtYX4BaFurXMOX3-9" value="" style="edgeStyle=none;orthogonalLoop=1;jettySize=auto;html=1;rounded=0;entryX=0.986;entryY=0.627;entryDx=0;entryDy=0;entryPerimeter=0;exitX=-0.001;exitY=0.707;exitDx=0;exitDy=0;exitPerimeter=0;" edge="1" parent="1" source="EGKJRAtYX4BaFurXMOX3-1" target="EGKJRAtYX4BaFurXMOX3-8">
          <mxGeometry width="100" relative="1" as="geometry">
            <mxPoint x="110" y="300" as="sourcePoint" />
            <mxPoint x="210" y="300" as="targetPoint" />
            <Array as="points" />
          </mxGeometry>
        </mxCell>
        <mxCell id="EGKJRAtYX4BaFurXMOX3-10" value="Research&amp;nbsp;&lt;span style=&quot;background-color: initial;&quot;&gt;Specialty&lt;/span&gt;" style="ellipse;whiteSpace=wrap;html=1;" vertex="1" parent="1">
          <mxGeometry x="100" y="320" width="120" height="30" as="geometry" />
        </mxCell>
        <mxCell id="EGKJRAtYX4BaFurXMOX3-11" value="" style="edgeStyle=none;orthogonalLoop=1;jettySize=auto;html=1;rounded=0;exitX=0.063;exitY=0.997;exitDx=0;exitDy=0;exitPerimeter=0;entryX=0.768;entryY=0.094;entryDx=0;entryDy=0;entryPerimeter=0;" edge="1" parent="1" source="EGKJRAtYX4BaFurXMOX3-1" target="EGKJRAtYX4BaFurXMOX3-10">
          <mxGeometry width="100" relative="1" as="geometry">
            <mxPoint x="250" y="340" as="sourcePoint" />
            <mxPoint x="350" y="340" as="targetPoint" />
            <Array as="points" />
          </mxGeometry>
        </mxCell>
        <mxCell id="EGKJRAtYX4BaFurXMOX3-12" value="&lt;h2&gt;Project&lt;/h2&gt;" style="rounded=0;whiteSpace=wrap;html=1;" vertex="1" parent="1">
          <mxGeometry x="540" y="60" width="120" height="60" as="geometry" />
        </mxCell>
        <mxCell id="EGKJRAtYX4BaFurXMOX3-13" value="&lt;u&gt;Project No&lt;/u&gt;" style="ellipse;whiteSpace=wrap;html=1;" vertex="1" parent="1">
          <mxGeometry x="430" width="100" height="30" as="geometry" />
        </mxCell>
        <mxCell id="EGKJRAtYX4BaFurXMOX3-14" value="" style="edgeStyle=none;orthogonalLoop=1;jettySize=auto;html=1;rounded=0;exitX=0;exitY=0.345;exitDx=0;exitDy=0;exitPerimeter=0;entryX=0.5;entryY=1;entryDx=0;entryDy=0;" edge="1" parent="1" source="EGKJRAtYX4BaFurXMOX3-12" target="EGKJRAtYX4BaFurXMOX3-13">
          <mxGeometry width="100" relative="1" as="geometry">
            <mxPoint x="520" y="20" as="sourcePoint" />
            <mxPoint x="620" y="20" as="targetPoint" />
            <Array as="points" />
          </mxGeometry>
        </mxCell>
        <mxCell id="EGKJRAtYX4BaFurXMOX3-15" value="Sponser Name" style="ellipse;whiteSpace=wrap;html=1;" vertex="1" parent="1">
          <mxGeometry x="560" y="-10" width="110" height="30" as="geometry" />
        </mxCell>
        <mxCell id="EGKJRAtYX4BaFurXMOX3-16" value="" style="edgeStyle=none;orthogonalLoop=1;jettySize=auto;html=1;rounded=0;exitX=0.47;exitY=-0.005;exitDx=0;exitDy=0;exitPerimeter=0;entryX=0.402;entryY=1.013;entryDx=0;entryDy=0;entryPerimeter=0;" edge="1" parent="1" source="EGKJRAtYX4BaFurXMOX3-12" target="EGKJRAtYX4BaFurXMOX3-15">
          <mxGeometry width="100" relative="1" as="geometry">
            <mxPoint x="660" y="40" as="sourcePoint" />
            <mxPoint x="760" y="40" as="targetPoint" />
            <Array as="points" />
          </mxGeometry>
        </mxCell>
        <mxCell id="EGKJRAtYX4BaFurXMOX3-17" value="Starting Date" style="ellipse;whiteSpace=wrap;html=1;" vertex="1" parent="1">
          <mxGeometry x="670" y="20" width="90" height="30" as="geometry" />
        </mxCell>
        <mxCell id="EGKJRAtYX4BaFurXMOX3-18" value="" style="edgeStyle=none;orthogonalLoop=1;jettySize=auto;html=1;rounded=0;exitX=1;exitY=0.115;exitDx=0;exitDy=0;exitPerimeter=0;entryX=0;entryY=1;entryDx=0;entryDy=0;" edge="1" parent="1" source="EGKJRAtYX4BaFurXMOX3-12" target="EGKJRAtYX4BaFurXMOX3-17">
          <mxGeometry width="100" relative="1" as="geometry">
            <mxPoint x="660" y="90" as="sourcePoint" />
            <mxPoint x="760" y="90" as="targetPoint" />
            <Array as="points" />
          </mxGeometry>
        </mxCell>
        <mxCell id="EGKJRAtYX4BaFurXMOX3-19" value="Ending Date" style="ellipse;whiteSpace=wrap;html=1;" vertex="1" parent="1">
          <mxGeometry x="690" y="75" width="90" height="30" as="geometry" />
        </mxCell>
        <mxCell id="EGKJRAtYX4BaFurXMOX3-20" value="" style="edgeStyle=none;orthogonalLoop=1;jettySize=auto;html=1;rounded=0;exitX=0.997;exitY=0.622;exitDx=0;exitDy=0;exitPerimeter=0;entryX=0;entryY=0.5;entryDx=0;entryDy=0;" edge="1" parent="1" source="EGKJRAtYX4BaFurXMOX3-12" target="EGKJRAtYX4BaFurXMOX3-19">
          <mxGeometry width="100" relative="1" as="geometry">
            <mxPoint x="620" y="130" as="sourcePoint" />
            <mxPoint x="720" y="130" as="targetPoint" />
            <Array as="points" />
          </mxGeometry>
        </mxCell>
        <mxCell id="EGKJRAtYX4BaFurXMOX3-21" value="Budget" style="ellipse;whiteSpace=wrap;html=1;" vertex="1" parent="1">
          <mxGeometry x="580" y="150" width="70" height="20" as="geometry" />
        </mxCell>
        <mxCell id="EGKJRAtYX4BaFurXMOX3-22" value="" style="edgeStyle=none;orthogonalLoop=1;jettySize=auto;html=1;rounded=0;entryX=0.278;entryY=0.042;entryDx=0;entryDy=0;entryPerimeter=0;exitX=0.458;exitY=0.998;exitDx=0;exitDy=0;exitPerimeter=0;" edge="1" parent="1" source="EGKJRAtYX4BaFurXMOX3-12" target="EGKJRAtYX4BaFurXMOX3-21">
          <mxGeometry width="100" relative="1" as="geometry">
            <mxPoint x="630" y="120" as="sourcePoint" />
            <mxPoint x="730" y="120" as="targetPoint" />
            <Array as="points" />
          </mxGeometry>
        </mxCell>
        <mxCell id="EGKJRAtYX4BaFurXMOX3-23" value="&lt;h2&gt;Student&amp;nbsp;&lt;/h2&gt;" style="rounded=0;whiteSpace=wrap;html=1;" vertex="1" parent="1">
          <mxGeometry x="660" y="450" width="120" height="60" as="geometry" />
        </mxCell>
        <mxCell id="EGKJRAtYX4BaFurXMOX3-24" value="&lt;u&gt;SSN&lt;/u&gt;" style="ellipse;whiteSpace=wrap;html=1;" vertex="1" parent="1">
          <mxGeometry x="650" y="390" width="80" height="30" as="geometry" />
        </mxCell>
        <mxCell id="EGKJRAtYX4BaFurXMOX3-25" value="Name" style="ellipse;whiteSpace=wrap;html=1;" vertex="1" parent="1">
          <mxGeometry x="760" y="400" width="60" height="20" as="geometry" />
        </mxCell>
        <mxCell id="EGKJRAtYX4BaFurXMOX3-26" value="" style="edgeStyle=none;orthogonalLoop=1;jettySize=auto;html=1;rounded=0;exitX=0.201;exitY=0.003;exitDx=0;exitDy=0;exitPerimeter=0;entryX=0.447;entryY=1.03;entryDx=0;entryDy=0;entryPerimeter=0;" edge="1" parent="1" source="EGKJRAtYX4BaFurXMOX3-23" target="EGKJRAtYX4BaFurXMOX3-24">
          <mxGeometry width="100" relative="1" as="geometry">
            <mxPoint x="620" y="440" as="sourcePoint" />
            <mxPoint x="720" y="440" as="targetPoint" />
            <Array as="points" />
          </mxGeometry>
        </mxCell>
        <mxCell id="EGKJRAtYX4BaFurXMOX3-27" value="" style="edgeStyle=none;orthogonalLoop=1;jettySize=auto;html=1;rounded=0;entryX=0.208;entryY=0.929;entryDx=0;entryDy=0;entryPerimeter=0;exitX=0.905;exitY=-0.005;exitDx=0;exitDy=0;exitPerimeter=0;" edge="1" parent="1" source="EGKJRAtYX4BaFurXMOX3-23" target="EGKJRAtYX4BaFurXMOX3-25">
          <mxGeometry width="100" relative="1" as="geometry">
            <mxPoint x="750" y="460" as="sourcePoint" />
            <mxPoint x="850" y="460" as="targetPoint" />
            <Array as="points" />
          </mxGeometry>
        </mxCell>
        <mxCell id="EGKJRAtYX4BaFurXMOX3-28" value="Age" style="ellipse;whiteSpace=wrap;html=1;" vertex="1" parent="1">
          <mxGeometry x="590" y="420" width="50" height="20" as="geometry" />
        </mxCell>
        <mxCell id="EGKJRAtYX4BaFurXMOX3-29" value="" style="edgeStyle=none;orthogonalLoop=1;jettySize=auto;html=1;rounded=0;entryX=0.656;entryY=0.994;entryDx=0;entryDy=0;entryPerimeter=0;exitX=0;exitY=0.25;exitDx=0;exitDy=0;" edge="1" parent="1" source="EGKJRAtYX4BaFurXMOX3-23" target="EGKJRAtYX4BaFurXMOX3-28">
          <mxGeometry width="100" relative="1" as="geometry">
            <mxPoint x="580" y="470" as="sourcePoint" />
            <mxPoint x="680" y="470" as="targetPoint" />
            <Array as="points" />
          </mxGeometry>
        </mxCell>
        <mxCell id="EGKJRAtYX4BaFurXMOX3-30" value="Program" style="ellipse;whiteSpace=wrap;html=1;" vertex="1" parent="1">
          <mxGeometry x="810" y="460" width="60" height="20" as="geometry" />
        </mxCell>
        <mxCell id="EGKJRAtYX4BaFurXMOX3-31" value="" style="edgeStyle=none;orthogonalLoop=1;jettySize=auto;html=1;rounded=0;exitX=1.002;exitY=0.349;exitDx=0;exitDy=0;exitPerimeter=0;entryX=0;entryY=0.5;entryDx=0;entryDy=0;" edge="1" parent="1" source="EGKJRAtYX4BaFurXMOX3-23" target="EGKJRAtYX4BaFurXMOX3-30">
          <mxGeometry width="100" relative="1" as="geometry">
            <mxPoint x="780" y="500" as="sourcePoint" />
            <mxPoint x="880" y="500" as="targetPoint" />
            <Array as="points" />
          </mxGeometry>
        </mxCell>
        <mxCell id="EGKJRAtYX4BaFurXMOX3-32" value="Managed" style="rhombus;whiteSpace=wrap;html=1;" vertex="1" parent="1">
          <mxGeometry x="470" y="180" width="80" height="80" as="geometry" />
        </mxCell>
        <mxCell id="EGKJRAtYX4BaFurXMOX3-35" value="M" style="text;html=1;align=center;verticalAlign=middle;resizable=0;points=[];autosize=1;strokeColor=none;fillColor=none;" vertex="1" parent="1">
          <mxGeometry x="325" y="268" width="30" height="30" as="geometry" />
        </mxCell>
        <mxCell id="EGKJRAtYX4BaFurXMOX3-36" value="N" style="text;html=1;align=center;verticalAlign=middle;resizable=0;points=[];autosize=1;strokeColor=none;fillColor=none;" vertex="1" parent="1">
          <mxGeometry x="565" y="118" width="30" height="30" as="geometry" />
        </mxCell>
        <mxCell id="EGKJRAtYX4BaFurXMOX3-37" value="project’s principal&lt;br/&gt;investigator" style="ellipse;whiteSpace=wrap;html=1;" vertex="1" parent="1">
          <mxGeometry x="590" y="200" width="120" height="42" as="geometry" />
        </mxCell>
        <mxCell id="EGKJRAtYX4BaFurXMOX3-39" value="" style="endArrow=none;html=1;rounded=0;entryX=0.5;entryY=1;entryDx=0;entryDy=0;exitX=1;exitY=0.5;exitDx=0;exitDy=0;" edge="1" parent="1" source="EGKJRAtYX4BaFurXMOX3-1" target="EGKJRAtYX4BaFurXMOX3-32">
          <mxGeometry width="50" height="50" relative="1" as="geometry">
            <mxPoint x="370" y="380" as="sourcePoint" />
            <mxPoint x="420" y="330" as="targetPoint" />
          </mxGeometry>
        </mxCell>
        <mxCell id="EGKJRAtYX4BaFurXMOX3-40" value="" style="endArrow=none;html=1;rounded=0;exitX=0.5;exitY=0;exitDx=0;exitDy=0;" edge="1" parent="1" source="EGKJRAtYX4BaFurXMOX3-32">
          <mxGeometry width="50" height="50" relative="1" as="geometry">
            <mxPoint x="510" y="170" as="sourcePoint" />
            <mxPoint x="560" y="120" as="targetPoint" />
          </mxGeometry>
        </mxCell>
        <mxCell id="EGKJRAtYX4BaFurXMOX3-41" value="" style="endArrow=none;html=1;rounded=0;entryX=0;entryY=0.5;entryDx=0;entryDy=0;exitX=1;exitY=0.5;exitDx=0;exitDy=0;" edge="1" parent="1" source="EGKJRAtYX4BaFurXMOX3-32" target="EGKJRAtYX4BaFurXMOX3-37">
          <mxGeometry width="50" height="50" relative="1" as="geometry">
            <mxPoint x="540" y="300" as="sourcePoint" />
            <mxPoint x="590" y="250" as="targetPoint" />
          </mxGeometry>
        </mxCell>
        <mxCell id="EGKJRAtYX4BaFurXMOX3-42" value="project’s co-investigators" style="ellipse;whiteSpace=wrap;html=1;" vertex="1" parent="1">
          <mxGeometry x="555" y="260" width="120" height="42" as="geometry" />
        </mxCell>
        <mxCell id="EGKJRAtYX4BaFurXMOX3-43" value="" style="endArrow=none;html=1;rounded=0;entryX=0;entryY=0.5;entryDx=0;entryDy=0;exitX=0.664;exitY=0.829;exitDx=0;exitDy=0;exitPerimeter=0;" edge="1" parent="1" source="EGKJRAtYX4BaFurXMOX3-32" target="EGKJRAtYX4BaFurXMOX3-42">
          <mxGeometry width="50" height="50" relative="1" as="geometry">
            <mxPoint x="500" y="350" as="sourcePoint" />
            <mxPoint x="550" y="300" as="targetPoint" />
          </mxGeometry>
        </mxCell>
        <mxCell id="EGKJRAtYX4BaFurXMOX3-44" value="Worked&amp;nbsp;&lt;div&gt;On&lt;/div&gt;" style="rhombus;whiteSpace=wrap;html=1;" vertex="1" parent="1">
          <mxGeometry x="760" y="210" width="80" height="80" as="geometry" />
        </mxCell>
        <mxCell id="EGKJRAtYX4BaFurXMOX3-45" value="" style="endArrow=none;html=1;rounded=0;entryX=0.892;entryY=1.003;entryDx=0;entryDy=0;entryPerimeter=0;exitX=0.5;exitY=0;exitDx=0;exitDy=0;" edge="1" parent="1" source="EGKJRAtYX4BaFurXMOX3-44" target="EGKJRAtYX4BaFurXMOX3-12">
          <mxGeometry width="50" height="50" relative="1" as="geometry">
            <mxPoint x="740" y="200" as="sourcePoint" />
            <mxPoint x="790" y="150" as="targetPoint" />
          </mxGeometry>
        </mxCell>
        <mxCell id="EGKJRAtYX4BaFurXMOX3-46" value="" style="endArrow=none;html=1;rounded=0;entryX=0.5;entryY=1;entryDx=0;entryDy=0;exitX=0.664;exitY=0.005;exitDx=0;exitDy=0;exitPerimeter=0;" edge="1" parent="1" source="EGKJRAtYX4BaFurXMOX3-23" target="EGKJRAtYX4BaFurXMOX3-44">
          <mxGeometry width="50" height="50" relative="1" as="geometry">
            <mxPoint x="720" y="380" as="sourcePoint" />
            <mxPoint x="770" y="330" as="targetPoint" />
            <Array as="points">
              <mxPoint x="740" y="350" />
            </Array>
          </mxGeometry>
        </mxCell>
        <mxCell id="EGKJRAtYX4BaFurXMOX3-47" value="M" style="text;html=1;align=center;verticalAlign=middle;resizable=0;points=[];autosize=1;strokeColor=none;fillColor=none;" vertex="1" parent="1">
          <mxGeometry x="715" y="418" width="30" height="30" as="geometry" />
        </mxCell>
        <mxCell id="EGKJRAtYX4BaFurXMOX3-48" value="1" style="text;html=1;align=center;verticalAlign=middle;resizable=0;points=[];autosize=1;strokeColor=none;fillColor=none;" vertex="1" parent="1">
          <mxGeometry x="660" y="110" width="30" height="30" as="geometry" />
        </mxCell>
        <mxCell id="EGKJRAtYX4BaFurXMOX3-49" value="Supervise" style="rhombus;whiteSpace=wrap;html=1;" vertex="1" parent="1">
          <mxGeometry x="335" y="45" width="90" height="90" as="geometry" />
        </mxCell>
        <mxCell id="EGKJRAtYX4BaFurXMOX3-50" value="" style="endArrow=none;html=1;rounded=0;exitX=0.75;exitY=0;exitDx=0;exitDy=0;entryX=0;entryY=0.5;entryDx=0;entryDy=0;" edge="1" parent="1" source="EGKJRAtYX4BaFurXMOX3-1" target="EGKJRAtYX4BaFurXMOX3-49">
          <mxGeometry width="50" height="50" relative="1" as="geometry">
            <mxPoint x="310" y="220" as="sourcePoint" />
            <mxPoint x="360" y="170" as="targetPoint" />
          </mxGeometry>
        </mxCell>
        <mxCell id="EGKJRAtYX4BaFurXMOX3-51" value="" style="endArrow=none;html=1;rounded=0;entryX=0;entryY=0.5;entryDx=0;entryDy=0;exitX=1;exitY=0.5;exitDx=0;exitDy=0;" edge="1" parent="1" source="EGKJRAtYX4BaFurXMOX3-49" target="EGKJRAtYX4BaFurXMOX3-12">
          <mxGeometry width="50" height="50" relative="1" as="geometry">
            <mxPoint x="380" y="150" as="sourcePoint" />
            <mxPoint x="430" y="100" as="targetPoint" />
          </mxGeometry>
        </mxCell>
        <mxCell id="EGKJRAtYX4BaFurXMOX3-52" value="Dovtor" style="rounded=0;whiteSpace=wrap;html=1;" vertex="1" parent="1">
          <mxGeometry x="70" y="45" width="120" height="60" as="geometry" />
        </mxCell>
      </root>
    </mxGraphModel>
  </diagram>
</mxfile>
